<?xml version="1.0" encoding="UTF-8"?>
<svg id="Capa_1" xmlns="http://www.w3.org/2000/svg" viewBox="0 0 512 512">
  <defs>
    <style>
      .cls-1 {
        fill: #518ecb;
      }

      .cls-2 {
        fill: #162a44;
      }
    </style>
  </defs>
  <path class="cls-1" d="M467.85,365.33c-13.37-3.6-25.81-9.47-37.31-17.13-19.13-12.73-36.31-12.32-55.49-.69s-37.96,27.33-59.03,37.57c-47.84,23.26-108.77,16.32-150.33-16.88-41.56-33.2-61.79-90.9-50.35-142.84,13.22-60,66.39-107.01,127.45-112.37,18.33-1.61,36.86.57,54.55,5.53,16.24,4.55,31.49,13.99,45.2,23.65,4.51,3.18,8.93,6.5,13.26,9.91,10.98,8.64,22.85,15.89,36.3,20.29,14.3,4.67,26.83-.16,38.5-7.59,11.42-7.26,23.38-13.38,36.01-17.88,5.76-2.05,4.55-4.46,2.68-7.77-6.5-11.46-13.58-22.57-21.76-32.9-21-26.55-46.2-48.18-76.04-64.31-46.74-25.26-103.18-34.54-155.52-25.8-64.03,10.69-122.4,48.17-159.33,101.47-23.25,33.55-37.18,70.44-41.66,110.83-5.07,45.65,1.87,89.4,21.58,131.16,20.88,44.25,54.01,81.29,96.37,105.88,43.79,25.41,95.96,37.56,146.45,32.52,33.47-3.34,66.23-13.65,95.54-30.15,40.89-23.02,70.91-56.51,94.96-96.26,1.52-2.51,2.57-4.99-2.03-6.23ZM285.58,114.16c.11.1.21.21.32.31-.12-.1-.22-.2-.32-.31Z"/>
  <path class="cls-2" d="M498.6,254.08c-.4-17.8-8.89-31.25-23.97-39.71-16.03-8.99-32.44-8.76-48.62,1.26-11.3,7-22.68,14.33-35.97,17.13-27.68,5.83-52.37-2.37-75.32-17.23-13.12-8.49-24.53-19.65-38.88-26.21-22.77-10.41-45.08-8.47-66.57,3.98-30.07,17.41-42.3,52.09-32.89,83.05,7.92,26.05,25.32,43.21,52.04,50.26,8.55,2.1,14.11,2.52,13.85,2.4,17.99.43,27.4-2.63,41.14-10.45,8.15-4.64,15.07-10.82,22.4-16.5,14.63-11.34,31.04-18.97,48.95-22.93,11.54-2.55,23.57-2.86,35.08.11,11.51,2.97,21.7,9.28,31.97,15.23,11.44,6.63,23.07,11.68,37.21,8.63,24.85-5.36,40.15-23.65,39.57-49.02Z"/>
</svg>